<?xml version="1.0" standalone="no"?>
<!DOCTYPE svg PUBLIC "-//W3C//DTD SVG 20010904//EN"
 "http://www.w3.org/TR/2001/REC-SVG-20010904/DTD/svg10.dtd">
<svg version="1.0" xmlns="http://www.w3.org/2000/svg"
 width="512.000000pt" height="512.000000pt" viewBox="0 0 512.000000 512.000000"
 preserveAspectRatio="xMidYMid meet">
<metadata>
Created by potrace 1.14, written by Peter Selinger 2001-2017
</metadata>
<g transform="translate(0.000000,512.000000) scale(0.100000,-0.100000)"
fill="#000000" stroke="none">
<path d="M630 4978 c-454 -152 -469 -159 -491 -242 -32 -117 61 -233 176 -221
22 2 207 60 410 128 204 68 377 123 385 121 8 -1 33 -5 55 -9 22 -4 43 -9 46
-11 3 -2 21 -6 40 -9 19 -3 68 -13 109 -21 41 -9 86 -18 100 -20 14 -3 59 -12
100 -20 41 -9 86 -18 100 -20 14 -3 59 -12 100 -20 41 -9 86 -18 100 -20 14
-2 48 -9 75 -15 28 -5 61 -12 74 -15 22 -5 9 -21 -139 -169 l-164 -164 -379
-1 c-454 0 -467 -2 -567 -96 -134 -125 -142 -343 -18 -479 45 -49 132 -103
173 -107 11 -1 -43 -4 -120 -8 -122 -5 -147 -9 -197 -32 -75 -35 -138 -94
-174 -165 -25 -51 -29 -69 -29 -148 0 -82 3 -96 33 -157 38 -78 92 -129 175
-167 l59 -26 -124 -1 c-108 -1 -132 -5 -186 -27 -82 -33 -142 -87 -183 -165
-28 -55 -33 -73 -33 -140 -1 -90 4 -112 37 -178 39 -76 132 -153 205 -169 34
-7 44 -25 15 -25 -54 -1 -170 -85 -213 -155 -54 -87 -65 -213 -26 -307 66
-160 186 -228 404 -226 57 0 106 -2 109 -6 4 -3 -3 -6 -15 -6 -70 0 -182 -92
-228 -186 -24 -50 -28 -72 -29 -144 0 -77 3 -92 33 -152 38 -77 91 -128 172
-166 48 -23 73 -27 195 -32 77 -4 131 -8 120 -9 -74 -7 -191 -102 -233 -190
-23 -48 -27 -69 -27 -146 0 -79 4 -97 28 -147 52 -105 143 -176 253 -195 27
-5 497 -8 1044 -8 l995 2 60 23 c82 32 164 114 194 195 70 187 -23 395 -204
456 -22 7 -43 16 -47 19 -4 3 57 5 135 5 137 0 144 1 200 30 210 105 266 368
115 540 -42 47 -129 105 -160 105 -10 0 -18 3 -18 8 0 4 57 7 128 8 117 0 132
3 189 29 68 30 138 96 171 162 62 121 43 275 -48 385 -34 41 -144 108 -178
108 -12 0 -22 5 -22 10 0 6 7 10 15 10 29 0 121 48 156 82 145 137 151 354 14
493 -83 86 -158 110 -337 110 -53 0 -94 3 -91 8 2 4 13 7 23 7 11 0 38 10 60
23 112 63 183 179 183 301 1 128 -50 225 -158 298 -68 45 -125 58 -273 59
-110 0 -115 1 -76 13 94 29 159 82 203 165 105 197 14 421 -202 497 -33 12
-117 14 -426 14 l-385 1 129 130 c72 72 137 134 145 139 8 4 40 11 70 15 30 4
58 9 61 11 4 2 31 6 60 10 30 3 70 9 89 14 19 5 52 11 73 14 20 3 54 9 75 12
20 3 87 14 147 24 128 23 129 23 300 50 72 12 141 23 155 26 14 2 41 7 60 10
19 3 111 19 205 34 l170 28 375 -126 c414 -139 445 -145 512 -101 99 65 105
213 12 283 -27 19 -803 282 -863 292 -20 3 -73 -1 -117 -10 -45 -8 -103 -18
-130 -21 -27 -4 -56 -8 -64 -10 -8 -3 -33 -7 -55 -10 -22 -4 -103 -17 -180
-30 -77 -14 -158 -27 -180 -30 -22 -3 -49 -8 -61 -10 -12 -3 -39 -7 -60 -11
-21 -3 -195 -32 -385 -64 l-346 -58 -119 24 c-65 14 -128 26 -139 28 -11 2
-159 32 -330 66 -170 34 -321 64 -335 66 -14 3 -101 20 -195 39 -93 19 -183
33 -200 33 -16 -1 -217 -64 -445 -140z"/>
<path d="M3828 4073 c-25 -6 -47 -47 -52 -94 -4 -36 -14 -52 -84 -123 -44 -44
-82 -93 -86 -108 -18 -79 82 -133 143 -77 12 11 21 18 21 17 1 -2 3 -21 6 -43
7 -51 42 -85 89 -85 44 0 85 46 85 98 l0 35 24 -22 c56 -53 146 -13 146 64 0
28 -12 45 -83 117 -78 77 -84 87 -89 132 -4 28 -14 56 -24 66 -20 19 -68 31
-96 23z"/>
<path d="M4515 1983 c-26 -14 -45 -49 -45 -84 0 -11 19 -40 42 -65 l42 -46 1
-111 c2 -135 9 -171 38 -185 73 -37 137 5 137 89 l0 32 23 -22 c57 -53 147
-18 147 58 0 25 -7 44 -20 56 -23 21 -17 36 13 31 31 -5 76 21 87 50 16 42 12
64 -19 95 l-29 29 -129 0 -129 0 -38 39 c-43 44 -81 54 -121 34z"/>
<path d="M3914 510 c-32 -13 -54 -50 -54 -91 0 -32 -10 -46 -85 -123 -73 -73
-85 -91 -85 -120 0 -72 85 -111 144 -65 l26 20 0 -25 c0 -68 46 -113 105 -102
44 9 77 56 70 98 -6 33 -1 34 32 8 51 -40 124 -16 139 47 9 36 -3 56 -88 142
-78 80 -83 89 -87 154 -1 26 -46 67 -73 66 -13 0 -33 -4 -44 -9z"/>
</g>
</svg>
